<?xml version="1.0" encoding="UTF-8" standalone="no"?>
<svg
   xmlns:dc="http://purl.org/dc/elements/1.1/"
   xmlns:cc="http://creativecommons.org/ns#"
   xmlns:rdf="http://www.w3.org/1999/02/22-rdf-syntax-ns#"
   xmlns:svg="http://www.w3.org/2000/svg"
   xmlns="http://www.w3.org/2000/svg"
   xmlns:xlink="http://www.w3.org/1999/xlink"
   xmlns:sodipodi="http://sodipodi.sourceforge.net/DTD/sodipodi-0.dtd"
   xmlns:inkscape="http://www.inkscape.org/namespaces/inkscape"
   version="1.1"
   id="svg10"
   width="330.96094"
   height="330.96094"
   viewBox="0 0 330.96094 330.96094"
   sodipodi:docname="logo.svg"
   inkscape:version="1.0.1 (3bc2e813f5, 2020-09-07)"
   inkscape:export-filename="C:\Users\domin\Desktop\logo-image.png"
   inkscape:export-xdpi="96"
   inkscape:export-ydpi="96">
  <metadata
     id="metadata16">
    <rdf:RDF>
      <cc:Work
         rdf:about="">
        <dc:format>image/svg+xml</dc:format>
        <dc:type
           rdf:resource="http://purl.org/dc/dcmitype/StillImage" />
        <dc:title></dc:title>
      </cc:Work>
    </rdf:RDF>
  </metadata>
  <defs
     id="defs14">
    <rect
       x="68.235802"
       y="26.162951"
       width="415.42523"
       height="44.194176"
       id="rect1233" />
  </defs>
  <sodipodi:namedview
     pagecolor="#ffffff"
     bordercolor="#666666"
     borderopacity="1"
     objecttolerance="10"
     gridtolerance="10"
     guidetolerance="10"
     inkscape:pageopacity="0"
     inkscape:pageshadow="2"
     inkscape:window-width="3840"
     inkscape:window-height="2066"
     id="namedview12"
     showgrid="false"
     inkscape:zoom="2.8284271"
     inkscape:cx="122.71264"
     inkscape:cy="173.80301"
     inkscape:window-x="-11"
     inkscape:window-y="-11"
     inkscape:window-maximized="1"
     inkscape:current-layer="layer6"
     showguides="true"
     inkscape:guide-bbox="true"
     inkscape:document-rotation="0" />
  <g
     inkscape:groupmode="layer"
     id="layer11"
     inkscape:label="Textbinde"
     style="display:none"
     transform="translate(-84.519531,-84.519531)">
    <g
       inkscape:groupmode="layer"
       id="layer7"
       inkscape:label="Background"
       style="display:inline">
      <circle
         style="fill:#ffffff;fill-opacity:1;stroke:#26408b;stroke-width:3;stroke-miterlimit:4;stroke-dasharray:none;stroke-opacity:1"
         id="path1031"
         cx="250"
         cy="250"
         r="218.90192" />
    </g>
    <g
       inkscape:groupmode="layer"
       id="layer9"
       inkscape:label="Name"
       style="display:inline">
      <circle
         style="display:inline;fill:none;fill-opacity:1;stroke:none;stroke-width:0.808236;stroke-miterlimit:4;stroke-dasharray:none;stroke-opacity:1"
         id="path1031-0"
         cx="-134.11885"
         cy="-327.12711"
         r="176.92451"
         transform="rotate(157.29314)" />
      <text
         xml:space="preserve"
         id="text1231"
         style="font-style:normal;font-weight:normal;font-size:40px;line-height:1.25;font-family:sans-serif;white-space:pre;shape-inside:url(#rect1233);fill:#000000;fill-opacity:1;stroke:none;"><tspan
           style="visibility:hidden"
           x="68.236328"
           y="105.74805"><tspan
             dx="0 30.800781 11.796875 31.484375 27.402344 25.273438 26.132812 27.363281 29.921875 27.363281 25.273438 27.792969 27.441406 27.363281 29.921875 30.800781 12.714844 31.484375 25.390625 29.921875 27.363281 27.441406 27.792969 29.277344 27.929688"
             style="shape-inside:url(#rect1233)">DIÖZESANVERBAND OSNABRÜCK</tspan></tspan></text>
      <text
         xml:space="preserve"
         style="font-style:normal;font-weight:normal;font-size:40px;line-height:1.25;font-family:sans-serif;fill:#26408b;fill-opacity:1;stroke:none"
         id="text1239"
         transform="translate(0.52108307)"><textPath
           xlink:href="#path1031-0"
           id="textPath1244"
           style="font-style:normal;font-variant:normal;font-weight:bold;font-stretch:normal;font-size:37.3333px;font-family:sans-serif;-inkscape-font-specification:'sans-serif, Bold';font-variant-ligatures:normal;font-variant-caps:normal;font-variant-numeric:normal;font-variant-east-asian:normal;fill:#26408b;fill-opacity:1">DIÖZESANVERBAND OSNABRÜCK</textPath></text>
    </g>
    <g
       inkscape:groupmode="layer"
       id="layer10"
       inkscape:label="URL">
      <text
         xml:space="preserve"
         style="font-style:normal;font-variant:normal;font-weight:normal;font-stretch:normal;font-size:40px;line-height:1.25;font-family:Arial;-inkscape-font-specification:'Arial, Normal';font-variant-ligatures:normal;font-variant-caps:normal;font-variant-numeric:normal;font-variant-east-asian:normal;display:inline;fill:#26408b;fill-opacity:1;stroke:none"
         id="text1273"><textPath
           xlink:href="#path1031-0-6"
           id="textPath1324"><tspan
             id="tspan1271"
             style="font-style:normal;font-variant:normal;font-weight:normal;font-stretch:normal;font-size:40px;font-family:Arial;-inkscape-font-specification:'Arial, Normal';font-variant-ligatures:normal;font-variant-caps:normal;font-variant-numeric:normal;font-variant-east-asian:normal;fill:#26408b;fill-opacity:1">dpsg-os.de</tspan></textPath></text>
      <path
         id="path1031-0-6"
         style="display:inline;fill:none;fill-opacity:1;stroke:none;stroke-width:0.930682;stroke-miterlimit:4;stroke-dasharray:none;stroke-opacity:1"
         d="M 160.82266,433.1737 A 203.72825,203.72825 0 0 0 433.17371,339.17735 203.72825,203.72825 0 0 0 339.17736,66.82631 203.72825,203.72825 0 0 0 66.826317,160.82265 203.72825,203.72825 0 0 0 160.82266,433.1737 Z" />
    </g>
  </g>
  <g
     inkscape:groupmode="layer"
     id="layer12"
     inkscape:label="Logo"
     style="display:inline"
     transform="translate(-84.519531,-84.519531)">
    <g
       inkscape:groupmode="layer"
       id="layer6"
       inkscape:label="Rad"
       style="display:inline">
      <path
         id="rect964"
         style="fill:#b02029;fill-opacity:1;stroke:#26408b;stroke-width:3;stroke-linecap:butt;stroke-miterlimit:4;stroke-dasharray:none;stroke-opacity:1;paint-order:normal"
         d="M 249.72852,86.019531 A 163.98096,163.98096 0 0 0 86.019531,250 163.98096,163.98096 0 0 0 250,413.98047 163.98096,163.98096 0 0 0 413.98047,250 163.98096,163.98096 0 0 0 250,86.019531 a 163.98096,163.98096 0 0 0 -0.27148,0 z m 0.25976,12.744141 a 5,5 0 0 1 5,4.999998 5,5 0 0 1 -5,5 5,5 0 0 1 -5,-5 5,5 0 0 1 5,-4.999998 z M 239.66016,124.25781 V 232.0918 L 146.0918,178.07031 a 126.65902,126.65902 0 0 1 93.56836,-53.8125 z m 20.9375,0.0215 a 126.65902,126.65902 0 0 1 93.31054,53.79101 l -93.31054,53.8711 z M 123.05273,171.6797 a 5,5 0 0 1 5,5 5,5 0 0 1 -5,5 5,5 0 0 1 -5,-5 5,5 0 0 1 5,-5 z m 253.29297,0.28906 a 5,5 0 0 1 5,5 5,5 0 0 1 -5,5 5,5 0 0 1 -5,-5 5,5 0 0 1 5,-5 z M 135.69141,195.94336 229.32031,250 135.32422,304.26758 a 126.65902,126.65902 0 0 1 -11.98242,-53.77344 126.65902,126.65902 0 0 1 12.34961,-54.55078 z m 228.61718,0 a 126.65902,126.65902 0 0 1 12.34961,54.55078 126.65902,126.65902 0 0 1 -11.98242,53.77344 L 270.67969,250 Z M 239.66016,267.9082 v 108.82227 a 126.65902,126.65902 0 0 1 -94.05664,-54.51758 z m 20.9375,0.15039 93.80078,54.1543 a 126.65902,126.65902 0 0 1 -93.80078,54.49609 z m 116.06836,49.90625 a 5,5 0 0 1 5,5 5,5 0 0 1 -5,5 5,5 0 0 1 -5,-5 5,5 0 0 1 5,-5 z m -253.81055,0.004 a 5,5 0 0 1 5,5 5,5 0 0 1 -5,5 5,5 0 0 1 -5,-5 5,5 0 0 1 5,-5 z m 127.33008,73.00195 a 5,5 0 0 1 5,5 5,5 0 0 1 -5,5 5,5 0 0 1 -5,-5 5,5 0 0 1 5,-5 z" />
    </g>
    <g
       inkscape:groupmode="layer"
       id="layer1"
       inkscape:label="Lilie"
       style="display:inline">
      <g
         id="g12"
         transform="matrix(0.047034,0,0,-0.047034,148.13732,350.27543)"
         style="opacity:1;fill:#26408b;fill-opacity:1;stroke:#ffffff;stroke-width:42.5224;stroke-miterlimit:4;stroke-dasharray:none">
        <g
           id="g62"
           style="fill:#26408b;fill-opacity:1;stroke:#ffffff;stroke-width:42.5224;stroke-miterlimit:4;stroke-dasharray:none">
          <path
             d="m 2166.5,4263.75 c 31.89,0 351.98,8.8 483.29,-82.31 129.89,-90.23 37.18,-445.75 22.27,-460.89 -43.64,-44.29 917.71,-17.57 936.31,-20.26 18.6,-2.63 414.93,-416.63 372.66,-435.38 -162.31,-72.11 -1299.87,-114.57 -1329.1,-130.49 -29.19,-15.96 -85.73,-666.54 -85.73,-709.97 0,-39.63 835.23,602.24 1260.63,621.61 290.95,13.23 403.03,-285.21 426.04,-368.63 25.65,-93.18 99.68,-339.52 72.74,-725.3 -12.64,-180.94 -135.23,-891.78 -512.69,-1200.919 -98.18,-80.34 -308.03,-177.949 -465,-85.031 -134.47,79.652 -716.1,547.43 -698.13,549.38 101.06,10.85 268.29,-50.64 347.46,3.31 119.94,81.6 128.81,606.12 146.15,786.41 2.88,30.17 -398.49,-101.03 -470.21,-151.49 -71.74,-50.46 -164.08,-151.14 -188.22,-241.38 -25.43,-95.25 20.59,-238.11 -20.38,-238.11 h -596.18 c -40.97,0 5.03,142.86 -20.37,238.11 -24.11,90.24 -116.45,190.92 -188.17,241.38 -71.74,50.46 -473.15,181.66 -470.23,151.49 17.4,-180.29 26.19,-704.81 146.09,-786.41 79.28,-53.95 246.48,7.54 347.51,-3.31 18.03,-1.95 -563.69,-469.728 -698.146,-549.38 C 828.203,573.262 618.316,670.871 520.176,751.211 142.715,1060.35 20.082,1771.19 7.39844,1952.13 c -26.88674,385.78 24.71486,574 71.17186,725.3 25.7147,83.71 136.6837,381.86 427.6017,368.63 425.492,-19.37 1260.648,-661.24 1260.648,-621.61 0,43.43 -56.46,694.01 -85.69,709.97 -29.2,15.92 -1166.814,58.38 -1329.153,130.49 -42.258,18.75 354.113,432.75 372.773,435.38 18.594,2.69 979.86,-24.03 936.32,20.26 -14.94,15.14 -107.69,370.66 22.17,460.89 131.26,91.11 451.4,82.31 483.26,82.31 v 0"
             style="fill:#26408b;fill-opacity:1;fill-rule:evenodd;stroke:#ffffff;stroke-width:42.5224;stroke-miterlimit:4;stroke-dasharray:none"
             id="path14" />
          <path
             d="m 2166.5,1256.35 c 0,0 -34.8,1.03 275.44,1.15 57.94,0 670.8,-922.531 723.71,-993.039 22.52,-29.941 -163.83,-99.539 -220.37,-97.031 -102.35,4.679 -373.03,267.32 -405.52,299.781 -32.54,32.578 49.72,-390.8594 26.44,-418.7501 C 2543.02,20.582 2166.5,0 2166.5,0 c 0,0 -376.37,20.582 -399.68,48.4609 -23.24,27.8907 59,451.3281 26.48,418.7501 -32.55,-32.461 -303.26,-295.102 -405.55,-299.781 -56.49,-2.508 -242.88,67.09 -220.4,97.031 52.91,70.508 664.95,993.949 722.92,993.039 276.23,0 276.23,-1.15 276.23,-1.15 v 0"
             style="fill:#26408b;fill-opacity:1;fill-rule:evenodd;stroke:#ffffff;stroke-width:42.5224;stroke-miterlimit:4;stroke-dasharray:none"
             id="path16" />
        </g>
      </g>
    </g>
  </g>
</svg>
